<?xml version="1.0" encoding="utf-8"?>
<!-- Generator: Adobe Illustrator 22.0.1, SVG Export Plug-In . SVG Version: 6.00 Build 0)  -->
<svg version="1.1" id="Layer_1" xmlns="http://www.w3.org/2000/svg" xmlns:xlink="http://www.w3.org/1999/xlink" x="0px" y="0px"
	 viewBox="0 0 756 460" style="enable-background:new 0 0 756 460;" xml:space="preserve">
<style type="text/css">
	.st0{fill:#FFFFFF;}
</style>
<g>
	<g>
		<path class="st0" d="M72.5,123.9V35.3c0-1.7,0.8-3.1,2.3-4.1c1.5-1,3.4-1.5,5.5-1.5h26.3c18.3,0,27.4,8,27.4,24
			c0,11.1-3.9,18.3-11.6,21.7c4.6,1.8,8.1,4.4,10.5,7.7c2.4,3.3,3.5,8.2,3.5,14.5v2.9c0,10.1-2.5,17.4-7.4,22
			c-4.9,4.6-11.5,6.9-19.9,6.9H80.2c-2.3,0-4.1-0.5-5.6-1.6C73.2,126.7,72.5,125.4,72.5,123.9z M90,68.4h15.3c3.5,0,6.2-1,8.1-3.1
			c1.9-2.1,2.8-5,2.8-8.6c0-3.5-1-6.3-2.9-8.4c-2-2-4.7-3.1-8.1-3.1H90V68.4z M90,113.9h15.4c8.8,0,13.2-5,13.2-14.9v-2.2
			c0-5.1-1.1-8.8-3.3-11c-2.2-2.3-5.5-3.4-9.9-3.4H90V113.9z"/>
		<path class="st0" d="M140,121.5c0-0.2,0.1-0.7,0.3-1.5l26.3-85.8c0.5-1.7,1.9-3.1,4-4c2.1-0.9,4.6-1.4,7.3-1.4
			c2.7,0,5.2,0.5,7.4,1.6c2.2,1,3.5,2.5,4.1,4.4l26.3,85.8c0.2,0.7,0.3,1.2,0.3,1.4c0,2-1.2,3.7-3.7,5.2c-2.5,1.5-5,2.2-7.5,2.2
			c-3.4,0-5.4-1.2-6-3.5l-5.2-18.1h-29.2l-5.1,18.1c-0.7,2.4-3,3.5-6.8,3.5c-3,0-5.8-0.8-8.5-2.3C141.4,125.6,140,123.8,140,121.5z
			 M168.3,93.8h23.6L180,52L168.3,93.8z"/>
		<path class="st0" d="M218.3,87.1c0-2.1,0.7-3.5,2.2-4.1l7.8-3.8v-44c0-1.8,0.9-3.2,2.6-4.1c1.7-0.9,3.8-1.4,6.3-1.4
			s4.5,0.5,6.3,1.4c1.7,0.9,2.6,2.3,2.6,4.1v35.4l8.2-4.1c0.4-0.2,0.9-0.3,1.6-0.3c1.5,0,3,0.9,4.3,2.6c1.3,1.7,2,3.5,2,5.2
			c0,2-0.8,3.4-2.3,4.1L246,84.9v28.9h33.3c1.6,0,2.9,0.8,3.9,2.3c1,1.5,1.4,3.4,1.4,5.5c0,2.1-0.5,3.9-1.4,5.5
			c-1,1.5-2.2,2.3-3.9,2.3h-43.2c-2.1,0-3.9-0.5-5.5-1.5c-1.5-1-2.3-2.4-2.3-4.1V93.5l-2.2,1.1c-0.5,0.3-1.1,0.4-1.6,0.4
			c-1.6,0-3.1-0.8-4.3-2.5C219,90.8,218.3,89,218.3,87.1z"/>
		<path class="st0" d="M274.5,37.4c0-2,0.5-3.8,1.4-5.4c1-1.6,2.3-2.3,4.2-2.3h57.7c1.8,0,3.2,0.8,4.2,2.3c1,1.6,1.4,3.3,1.4,5.4
			c0,2.1-0.5,4-1.5,5.5c-1,1.6-2.4,2.3-4.1,2.3h-19.9v78.5c0,1.7-0.9,3.1-2.7,4.1c-1.8,1-3.8,1.5-6.2,1.5c-2.5,0-4.5-0.5-6.3-1.5
			c-1.7-1-2.6-2.4-2.6-4.1V45.3h-20c-1.7,0-3.1-0.8-4.1-2.3C275,41.5,274.5,39.6,274.5,37.4z"/>
		<path class="st0" d="M346.1,37.1c0-2,1.3-3.7,3.9-5.2c2.6-1.5,5.2-2.2,7.8-2.2c2.5,0,4.3,1.2,5.5,3.5L384,72.7l20.9-39.4
			c1.3-2.4,3-3.5,5.3-3.5c2.6,0,5.2,0.7,7.8,2.2c2.6,1.5,3.9,3.2,3.9,5.2c0,0.7-0.1,1.3-0.4,1.8l-28.1,48.8
			c-0.4,0.5-0.5,1.1-0.5,1.8v34.4c0,1.7-0.9,3.1-2.6,4.1c-1.7,1-3.8,1.5-6.3,1.5c-2.4,0-4.4-0.5-6.2-1.5c-1.8-1-2.7-2.4-2.7-4.1
			V89.4c0-0.8-0.1-1.4-0.4-1.8l-28.2-48.8C346.2,38.1,346.1,37.5,346.1,37.1z"/>
		<path class="st0" d="M428.6,99v-38c0-10.7,2.9-18.6,8.7-23.7c5.8-5,13.4-7.6,22.8-7.6c9.5,0,17.3,2.4,23.4,7.1
			c6,4.7,9.1,11,9.1,18.8c0,3.4-0.7,5.7-2,6.9c-1.4,1.2-3.6,1.8-6.8,1.8c-5.8,0-8.8-1.9-8.9-5.6c-0.1-1.2-0.2-2.2-0.3-3.1
			c-0.1-0.9-0.5-2-1.1-3.4c-0.6-1.4-1.3-2.6-2.3-3.5c-0.9-1-2.3-1.8-4.1-2.5c-1.8-0.7-4-1-6.4-1c-9.5,0-14.3,5.2-14.3,15.7v38
			c0,10.5,4.9,15.7,14.6,15.7c2.9,0,5.3-0.5,7.3-1.4c2-0.9,3.4-2.2,4.2-3.9c0.9-1.7,1.5-3.2,1.8-4.5c0.3-1.3,0.5-2.9,0.6-4.8
			c0.3-3.7,3.2-5.6,8.7-5.6c3.2,0,5.5,0.6,6.9,1.8c1.4,1.2,2.1,3.5,2.1,6.9c0,8.2-3,14.7-9.1,19.6c-6,4.9-13.9,7.4-23.5,7.4
			c-9.4,0-16.9-2.5-22.7-7.6C431.5,117.6,428.6,109.7,428.6,99z"/>
		<path class="st0" d="M504.5,123.8V35.2c0-1.8,0.9-3.2,2.6-4.1c1.7-0.9,3.8-1.4,6.3-1.4s4.5,0.5,6.3,1.4c1.7,0.9,2.6,2.3,2.6,4.1
			v37.2l29.5-40.1c1.3-1.7,2.9-2.6,4.9-2.6c2.3,0,4.5,1,6.8,2.9c2.3,2,3.4,4,3.4,6.2c0,1.4-0.4,2.5-1.1,3.4l-24.4,30.5l29.7,45.3
			c0.6,0.9,1,2,1,3.1c0,2.2-1.1,4.2-3.3,6.1c-2.2,1.9-4.7,2.8-7.3,2.8c-2.7,0-4.8-1.1-6.1-3.4l-25.6-38.9l-7.4,9.3v26.7
			c0,1.7-0.9,3.1-2.7,4.1c-1.8,1-3.8,1.5-6.2,1.5c-2.5,0-4.5-0.5-6.3-1.5C505.4,126.9,504.5,125.5,504.5,123.8z"/>
		<path class="st0" d="M579.8,123.8V35.2c0-1.8,0.9-3.2,2.6-4.1c1.7-0.9,3.8-1.4,6.3-1.4s4.5,0.5,6.3,1.4c1.7,0.9,2.6,2.3,2.6,4.1
			v88.6c0,1.7-0.9,3.1-2.7,4.1c-1.8,1-3.8,1.5-6.2,1.5c-2.5,0-4.5-0.5-6.3-1.5C580.7,126.9,579.8,125.5,579.8,123.8z"/>
		<path class="st0" d="M613.9,123.8V35.3c0-1.7,0.8-3.1,2.3-4.1c1.5-1,3.4-1.5,5.5-1.5h48.5c1.8,0,3.2,0.8,4.2,2.3
			c1,1.5,1.4,3.3,1.4,5.3c0,2.2-0.5,4-1.5,5.6c-1,1.5-2.4,2.3-4.1,2.3h-38.6v27.3h20.7c1.7,0,3.1,0.7,4.1,2.1c1,1.4,1.5,3.1,1.5,5
			c0,1.7-0.5,3.3-1.4,4.7c-1,1.4-2.3,2.1-4.2,2.1h-20.7v27.4h38.6c1.7,0,3.1,0.8,4.1,2.3c1,1.5,1.5,3.4,1.5,5.6c0,2-0.5,3.8-1.4,5.3
			c-1,1.5-2.3,2.3-4.2,2.3h-48.5c-2.1,0-3.9-0.5-5.5-1.5C614.6,126.9,613.9,125.5,613.9,123.8z"/>
		<path class="st0" d="M72.5,270.3v-88.6c0-1.7,0.8-3.1,2.3-4.1c1.5-1,3.4-1.5,5.5-1.5h26.3c18.3,0,27.4,8,27.4,24
			c0,11.1-3.9,18.3-11.6,21.7c4.6,1.8,8.1,4.4,10.5,7.7c2.4,3.3,3.5,8.2,3.5,14.5v2.9c0,10.1-2.5,17.4-7.4,22
			c-4.9,4.6-11.5,6.9-19.9,6.9H80.2c-2.3,0-4.1-0.5-5.6-1.6C73.2,273,72.5,271.7,72.5,270.3z M90,214.8h15.3c3.5,0,6.2-1,8.1-3.1
			c1.9-2.1,2.8-5,2.8-8.6c0-3.5-1-6.3-2.9-8.4c-2-2-4.7-3.1-8.1-3.1H90V214.8z M90,260.2h15.4c8.8,0,13.2-5,13.2-14.9v-2.2
			c0-5.1-1.1-8.8-3.3-11c-2.2-2.3-5.5-3.4-9.9-3.4H90V260.2z"/>
		<path class="st0" d="M149.1,270.1v-88.6c0-1.8,0.9-3.2,2.6-4.1c1.7-0.9,3.8-1.4,6.3-1.4c2.5,0,4.5,0.5,6.3,1.4
			c1.7,0.9,2.6,2.3,2.6,4.1v88.6c0,1.7-0.9,3.1-2.7,4.1c-1.8,1-3.8,1.5-6.2,1.5c-2.5,0-4.5-0.5-6.3-1.5
			C149.9,273.2,149.1,271.9,149.1,270.1z"/>
		<path class="st0" d="M176.6,183.8c0-2,0.5-3.8,1.4-5.4c1-1.6,2.3-2.3,4.2-2.3h57.7c1.8,0,3.2,0.8,4.2,2.3c1,1.6,1.4,3.3,1.4,5.4
			c0,2.1-0.5,4-1.5,5.5c-1,1.6-2.4,2.3-4.1,2.3H220v78.5c0,1.7-0.9,3.1-2.7,4.1c-1.8,1-3.8,1.5-6.2,1.5c-2.5,0-4.5-0.5-6.3-1.5
			c-1.7-1-2.6-2.4-2.6-4.1v-78.5h-20c-1.7,0-3.1-0.8-4.1-2.3C177.1,187.9,176.6,186,176.6,183.8z"/>
		<path class="st0" d="M248.2,183.2c0-1.9,1.2-3.6,3.7-5c2.5-1.4,5-2.1,7.6-2.1c3.3,0,5.2,1.2,5.9,3.5l21.5,73.9l11.6-47.4
			c0.8-3.3,3.7-4.9,8.7-4.9c4.9,0,7.8,1.6,8.6,4.9l11.6,47.4l21.5-73.9c0.6-2.4,2.6-3.5,5.9-3.5c2.6,0,5.2,0.7,7.6,2.1
			c2.5,1.4,3.7,3.1,3.7,5c0,0.5-0.1,1.1-0.3,1.6l-27,85.8c-1.4,4-5.2,6-11.6,6c-2.7,0-5.2-0.5-7.4-1.6c-2.2-1-3.5-2.5-4-4.4
			l-8.7-36.8l-8.9,36.8c-0.5,1.9-1.8,3.4-4,4.4c-2.2,1-4.6,1.6-7.4,1.6c-2.8,0-5.3-0.5-7.5-1.6s-3.5-2.5-4.1-4.4l-27-85.8
			C248.3,184.3,248.2,183.7,248.2,183.2z"/>
		<path class="st0" d="M368.6,183.4c0-2,1.3-3.7,3.9-5.2c2.6-1.5,5.2-2.2,7.8-2.2c2.5,0,4.3,1.2,5.5,3.5l20.7,39.4l20.9-39.4
			c1.3-2.4,3-3.5,5.3-3.5c2.6,0,5.2,0.7,7.8,2.2c2.6,1.5,3.9,3.2,3.9,5.2c0,0.7-0.1,1.3-0.4,1.8L415.9,234c-0.4,0.5-0.5,1.1-0.5,1.8
			v34.4c0,1.7-0.9,3.1-2.6,4.1c-1.7,1-3.8,1.5-6.3,1.5c-2.4,0-4.4-0.5-6.2-1.5c-1.8-1-2.7-2.4-2.7-4.1v-34.4c0-0.8-0.1-1.4-0.4-1.8
			L369,185.2C368.7,184.5,368.6,183.9,368.6,183.4z"/>
		<path class="st0" d="M72.5,416.5v-88.6c0-1.5,0.5-2.7,1.6-3.8s2.5-1.6,4.1-1.6h27c21.5,0,32.3,9.5,32.3,28.5
			c0,7.5-1.6,13.5-4.8,18c-3.2,4.5-7.6,7.6-13,9.3l17.9,33.1c0.5,0.5,0.7,1.3,0.7,2.2c0,2.3-1.2,4.4-3.5,6.3c-2.4,2-4.9,2.9-7.5,2.9
			c-2.6,0-4.7-1.4-6.1-4.2l-19.4-37.6H90.2v35.6c0,1.7-0.9,3.1-2.6,4.1c-1.7,1-3.8,1.5-6.3,1.5c-2.4,0-4.4-0.5-6.2-1.5
			C73.3,419.6,72.5,418.2,72.5,416.5z M90.2,367h15c9.7,0,14.6-4.8,14.6-14.5c0-9.7-4.9-14.6-14.6-14.6h-15V367z"/>
		<path class="st0" d="M149.1,391.7v-38c0-10.8,2.9-18.7,8.7-23.7c5.8-5,13.5-7.5,23.2-7.5c9.7,0,17.5,2.5,23.3,7.5
			c5.8,5,8.7,12.9,8.7,23.7v38c0,10.8-2.9,18.7-8.7,23.7c-5.8,5-13.6,7.5-23.3,7.5c-9.7,0-17.5-2.5-23.2-7.5
			C152,410.4,149.1,402.5,149.1,391.7z M166.8,391.7c0,10.5,4.7,15.7,14.2,15.7c9.5,0,14.3-5.2,14.3-15.7v-38
			c0-10.5-4.8-15.7-14.3-15.7c-9.5,0-14.2,5.2-14.2,15.7V391.7z"/>
		<path class="st0" d="M228.2,416.6V328c0-1.7,0.8-3.1,2.3-4.1c1.5-1,3.4-1.5,5.5-1.5h26.3c18.3,0,27.4,8,27.4,24
			c0,11.1-3.9,18.3-11.6,21.7c4.6,1.8,8.1,4.4,10.5,7.7c2.4,3.3,3.5,8.2,3.5,14.5v2.9c0,10.1-2.5,17.4-7.4,22
			c-4.9,4.6-11.5,6.9-19.9,6.9h-28.9c-2.3,0-4.1-0.5-5.6-1.6C228.9,419.4,228.2,418.1,228.2,416.6z M245.7,361.1H261
			c3.5,0,6.2-1,8.1-3.1c1.9-2.1,2.8-5,2.8-8.6c0-3.5-1-6.3-2.9-8.4c-2-2-4.7-3.1-8.1-3.1h-15.1V361.1z M245.7,406.5h15.4
			c8.8,0,13.2-5,13.2-14.9v-2.2c0-5.1-1.1-8.8-3.3-11c-2.2-2.3-5.5-3.4-9.9-3.4h-15.4V406.5z"/>
		<path class="st0" d="M303.7,391.7v-38c0-10.8,2.9-18.7,8.7-23.7c5.8-5,13.5-7.5,23.2-7.5c9.7,0,17.5,2.5,23.3,7.5
			c5.8,5,8.7,12.9,8.7,23.7v38c0,10.8-2.9,18.7-8.7,23.7c-5.8,5-13.6,7.5-23.3,7.5c-9.7,0-17.5-2.5-23.2-7.5
			C306.6,410.4,303.7,402.5,303.7,391.7z M321.4,391.7c0,10.5,4.7,15.7,14.2,15.7c9.5,0,14.3-5.2,14.3-15.7v-38
			c0-10.5-4.8-15.7-14.3-15.7c-9.5,0-14.2,5.2-14.2,15.7V391.7z"/>
		<path class="st0" d="M374.6,330.1c0-2,0.5-3.8,1.4-5.4c1-1.6,2.3-2.3,4.2-2.3h57.7c1.8,0,3.2,0.8,4.2,2.3s1.4,3.3,1.4,5.4
			c0,2.1-0.5,4-1.5,5.5c-1,1.6-2.4,2.3-4.1,2.3h-19.9v78.5c0,1.7-0.9,3.1-2.7,4.1c-1.8,1-3.8,1.5-6.2,1.5c-2.5,0-4.5-0.5-6.3-1.5
			c-1.7-1-2.6-2.4-2.6-4.1V338h-20c-1.7,0-3.1-0.8-4.1-2.3C375.1,334.2,374.6,332.3,374.6,330.1z"/>
		<path class="st0" d="M450.4,391.7v-38c0-10.8,2.9-18.7,8.7-23.7c5.8-5,13.5-7.5,23.2-7.5c9.7,0,17.5,2.5,23.3,7.5
			c5.8,5,8.7,12.9,8.7,23.7v38c0,10.8-2.9,18.7-8.7,23.7c-5.8,5-13.6,7.5-23.3,7.5c-9.7,0-17.5-2.5-23.2-7.5
			C453.3,410.4,450.4,402.5,450.4,391.7z M468.1,391.7c0,10.5,4.7,15.7,14.2,15.7c9.5,0,14.3-5.2,14.3-15.7v-38
			c0-10.5-4.8-15.7-14.3-15.7c-9.5,0-14.2,5.2-14.2,15.7V391.7z M473.3,304.8c0-2,0.8-3.4,2.3-4.2l18-8.7c0.9-0.2,1.5-0.3,1.8-0.3
			c1.5,0,2.7,0.7,3.8,2.1c1.1,1.4,1.6,2.9,1.6,4.6c0,2-0.8,3.4-2.5,4.1l-17.7,8.6c-0.9,0.4-1.5,0.5-1.9,0.5c-1.5,0-2.7-0.7-3.8-2.2
			C473.8,307.9,473.3,306.4,473.3,304.8z"/>
		<path class="st0" d="M522.5,329.5c0-1.9,1.2-3.6,3.7-5c2.5-1.4,5-2.1,7.6-2.1c3.3,0,5.2,1.2,5.9,3.5l21.5,73.9l11.6-47.4
			c0.8-3.3,3.7-4.9,8.7-4.9c4.9,0,7.8,1.6,8.6,4.9l11.6,47.4l21.5-73.9c0.6-2.4,2.6-3.5,5.9-3.5c2.6,0,5.2,0.7,7.6,2.1
			c2.5,1.4,3.7,3.1,3.7,5c0,0.5-0.1,1.1-0.3,1.6l-27,85.8c-1.4,4-5.2,6-11.6,6c-2.7,0-5.2-0.5-7.4-1.6s-3.5-2.5-4-4.4l-8.7-36.8
			l-8.9,36.8c-0.5,1.9-1.8,3.4-4,4.4s-4.6,1.6-7.4,1.6c-2.8,0-5.3-0.5-7.5-1.6c-2.2-1-3.5-2.5-4.1-4.4l-27-85.8
			C522.6,330.6,522.5,330,522.5,329.5z"/>
	</g>
</g>
</svg>
